<mxfile host="app.diagrams.net" modified="2023-09-01T01:16:58.243Z" agent="Mozilla/5.0 (Macintosh; Intel Mac OS X 10_15_7) AppleWebKit/537.36 (KHTML, like Gecko) Chrome/116.0.0.0 Safari/537.36" version="21.7.1" etag="QhC6Gxr1I6bXnjTJVO42" type="github">
  <diagram name="페이지-1" id="CBfkXiTR2d5JUe4fXw5o">
    <mxGraphModel>
      <root>
        <mxCell id="0" />
        <mxCell id="1" parent="0" />
      </root>
    </mxGraphModel>
  </diagram>
</mxfile>
